HIERARCHY
ROOT ui
{
	 OFFSET 0 0 0
	 CHANNELS 3 XPosition YPosition Z Position
	 EndSite
	 {
	 OFFSET 0 -1 0
	 }
}
ROOT li
{
	 OFFSET 0 0 0
	 CHANNELS 3 XPosition YPosition Z Position
	 EndSite
	 {
	 OFFSET 0 -1 0
	 }
}
ROOT ul
{
	 OFFSET 0 0 0
	 CHANNELS 3 XPosition YPosition Z Position
	 EndSite
	 {
	 OFFSET 0 -1 0
	 }
}
ROOT ll
{
	 OFFSET 0 0 0
	 CHANNELS 3 XPosition YPosition Z Position
	 EndSite
	 {
	 OFFSET 0 -1 0
	 }
}
ROOT tt
{
	 OFFSET 0 0 0
	 CHANNELS 3 XPosition YPosition Z Position
	 EndSite
	 {
	 OFFSET 0 -1 0
	 }
}
ROOT tb
{
	 OFFSET 0 0 0
	 CHANNELS 3 XPosition YPosition Z Position
	 EndSite
	 {
	 OFFSET 0 -1 0
	 }
}
ROOT td
{
	 OFFSET 0 0 0
	 CHANNELS 3 XPosition YPosition Z Position
	 EndSite
	 {
	 OFFSET 0 -1 0
	 }
}
ROOT v
{
	 OFFSET 0 0 0
	 CHANNELS 3 XPosition YPosition Z Position
	 EndSite
	 {
	 OFFSET 0 -1 0
	 }
}
ROOT bn
{
	 OFFSET 0 0 0
	 CHANNELS 3 XPosition YPosition Z Position
	 EndSite
	 {
	 OFFSET 0 -1 0
	 }
}
MOTION
Frames: 21
Frame Time: 0.002
-2.3879800736904144E-4	-9.491080045700073E-4	0		0.4338428649902344	-2.35728662109375	0		-1.124673828125	0.268010009765625	0		-0.5838862915039063	-2.73539697265625	0		1.66992138671875	-0.5062320251464844	0		3.093653564453125	-0.02706934356689453	0		4.62217333984375	0.32706732177734377	0		5.96685205078125	0.5618612060546875	0		-0.44939169311523436	5.8407001953125	0		
-1.881140023469925E-4	-8.732709884643555E-4	0		0.46381597900390625	-2.354523681640625	0		-1.0387130126953126	0.2572955627441406	0		-0.567978271484375	-2.737451416015625	0		1.6886649169921875	-0.5354153442382813	0		3.1085068359375	-0.0472777099609375	0		4.64428662109375	0.33172088623046875	0		5.9705263671875	0.5787412719726562	0		-0.432021728515625	5.84662939453125	0		
0.003894721984863281	0.002187819957733154	0		0.4308846740722656	-2.341121826171875	0		-1.1095943603515626	0.26314410400390625	0		-0.5789783935546875	-2.729215576171875	0		1.7182783203125	-0.5776895751953125	0		3.100578125	-0.04524949645996094	0		4.68727587890625	0.3231737976074219	0		5.97056787109375	0.5784097900390625	0		-0.43365481567382813	5.8497705078125	0		
-8.002199977636337E-5	-6.458119750022888E-4	0		0.47769720458984377	-2.353481201171875	0		-1.0436182861328125	0.2536767883300781	0		-0.59503466796875	-2.725900634765625	0		1.700938232421875	-0.6144818725585938	0		3.118273681640625	-0.08145919799804688	0		4.70720751953125	0.30886111450195314	0		5.96697314453125	0.56087646484375	0		-0.46833517456054685	5.84626611328125	0		
-2.6674000546336176E-5	-4.909830093383789E-4	0		0.43156536865234374	-2.35889501953125	0		-1.126616455078125	0.24771322631835938	0		-0.597149169921875	-2.727693603515625	0		1.77967626953125	-0.6432029418945312	0		3.144072998046875	-0.10673088073730469	0		4.7261376953125	0.2945721130371094	0		5.9626640625	0.5433828125	0		-0.43292611694335936	5.85009814453125	0		
-0.00300673508644104	-0.003276535987854004	0		0.44854202270507815	-2.352905029296875	0		-1.1165633544921876	0.24686083984375	0		-0.62131103515625	-2.733235595703125	0		1.76431103515625	-0.6809666137695313	0		3.184844970703125	-0.13413104248046875	0		4.75811279296875	0.28517230224609375	0		5.96270263671875	0.5431190185546875	0		-0.43254843139648436	5.85030712890625	0		
6.700800359249115E-5	-9.099200367927551E-5	0		0.43341302490234374	-2.356563720703125	0		-1.1065159912109375	0.24603944396972657	0		-0.58443408203125	-2.7343564453125	0		1.8199517822265625	-0.717411865234375	0		3.198880615234375	-0.1342367401123047	0		4.79501025390625	0.26874703979492187	0		5.97058154296875	0.5427110595703125	0		-0.41807275390625	5.86040576171875	0		
1.0311499983072281E-4	1.5820200741291046E-4	0		0.4842429809570313	-2.36385400390625	0		-1.111506103515625	0.2424017333984375	0		-0.6215401000976563	-2.732700439453125	0		1.8347042236328126	-0.7414155883789062	0		3.234503173828125	-0.17452955627441405	0		4.83610986328125	0.27331143188476564	0		5.96570458984375	0.5634364013671875	0		-0.417706298828125	5.8606787109375	0		
-0.002900665044784546	-0.0025260009765625	0		0.4561410217285156	-2.36331103515625	0		-1.040510498046875	0.2380269470214844	0		-0.555768798828125	-2.743051025390625	0		1.9011785888671875	-0.7919093017578125	0		3.295425537109375	-0.1840413513183594	0		4.87385498046875	0.24394627380371095	0		5.961396484375	0.5513540649414063	0		-0.39740948486328126	5.85578369140625	0		
1.4508999884128572E-4	7.671419978141784E-4	0		0.4799797973632812	-2.368256103515625	0		-1.115478759765625	0.2391713104248047	0		-0.5959262084960938	-2.74528955078125	0		1.928762939453125	-0.829969482421875	0		3.308042724609375	-0.222021728515625	0		4.924625	0.21849417114257813	0		5.9650419921875	0.5668482666015625	0		-0.383964111328125	5.8679951171875	0		
-0.0028824470043182374	-0.001836696982383728	0		0.46280484008789063	-2.37373974609375	0		-1.1045567626953126	0.2304794158935547	0		-0.5871622924804687	-2.754986572265625	0		2.0081973876953123	-0.8815179443359376	0		3.373866943359375	-0.23849674987792968	0		4.96860595703125	0.2151641082763672	0		5.958474609375	0.5307965087890625	0		-0.4157507629394531	5.8607080078125	0		
0.004168664932250977	0.004500617980957031	0		0.473623046875	-2.379464599609375	0		-1.0895262451171874	0.23378506469726562	0		-0.6073187255859375	-2.75634375	0		2.044701416015625	-0.9245796508789063	0		3.407452392578125	-0.276590576171875	0		5.01341748046875	0.19688253784179688	0		5.96083642578125	0.5846015014648438	0		-0.3984100952148438	5.86896142578125	0		
0.004144286155700684	0.004957283020019531	0		0.49844534301757815	-2.384285888671875	0		-1.089541015625	0.2342877197265625	0		-0.5435867919921875	-2.76852294921875	0		2.13925	-0.96218994140625	0		3.458341064453125	-0.28380441284179686	0		5.0862109375	0.17837408447265626	0		5.96139501953125	0.5520687255859374	0		-0.40015673828125	5.87245556640625	0		
7.321099936962128E-5	0.002504971981048584	0		0.4922422180175781	-2.390736083984375	0		-1.09361376953125	0.23087693786621094	0		-0.5837611083984375	-2.77058056640625	0		2.165558837890625	-1.0210421752929688	0		3.463811767578125	-0.3294892578125	0		5.1260712890625	0.16827243041992188	0		5.954087890625	0.5181318359375	0		-0.4150877990722656	5.86213330078125	0		
-0.0030158870220184327	9.305500239133834E-5	0		0.48806219482421875	-2.394154052734375	0		-1.0927579345703125	0.22246047973632813	0		-0.5220617065429688	-2.784649658203125	0		2.18896484375	-1.068805908203125	0		3.529436767578125	-0.3587353820800781	0		5.17576611328125	0.14413681030273437	0		5.96118017578125	0.5185653076171876	0		-0.41593804931640627	5.86371435546875	0		
-0.0030938470363616943	7.009239792823791E-4	0		0.45991555786132815	-2.39326806640625	0		-1.0837462158203126	0.23100581359863281	0		-0.5693336791992187	-2.79453466796875	0		2.230330810546875	-1.118698486328125	0		3.564032958984375	-0.3885951538085938	0		5.2145751953125	0.1331859130859375	0		5.95399365234375	0.5194928588867187	0		-0.4148546142578125	5.86332373046875	0		
-1.6211099922657012E-4	0.004328548908233643	0		0.4857236633300781	-2.395892578125	0		-1.06790380859375	0.22552462768554687	0		-0.569502685546875	-2.793861572265625	0		2.31659130859375	-1.1770028076171875	0		3.61284765625	-0.3955374755859375	0		5.2713505859375	0.1211190414428711	0		5.9681875	0.5200128784179687	0		-0.39969400024414065	5.87483544921875	0		
-2.8435000777244566E-4	0.00503882122039795	0		0.4835318603515625	-2.3971708984375	0		-1.073063232421875	0.2223092498779297	0		-0.5727235107421875	-2.79710791015625	0		2.33711865234375	-1.2075582275390624	0		3.64828515625	-0.43627606201171876	0		5.30705029296875	0.10434551239013672	0		5.95900927734375	0.5627842407226562	0		-0.4148117980957031	5.8647119140625	0		
-4.3031299114227293E-4	0.00579914379119873	0		0.5579448852539063	-2.435204345703125	0		-1.0772476806640625	0.21912858581542968	0		-0.53512548828125	-2.816737060546875	0		2.3903935546875	-1.2603990478515625	0		3.704024169921875	-0.44616070556640625	0		5.3556298828125	0.0785094223022461	0		5.969529296875	0.5463656616210938	0		-0.41486627197265624	5.865478515625	0		
-0.007673964977264404	-3.186460137367249E-4	0		0.5017616271972656	-2.432813232421875	0		-1.08245751953125	0.21600128173828126	0		-0.5403788452148437	-2.8208701171875	0		2.440691162109375	-1.309150634765625	0		3.70151220703125	-0.47736990356445314	0		5.39741552734375	0.07481781768798829	0		5.9657744140625	0.5321727294921875	0		-0.38091183471679685	5.87193310546875	0		
-0.003827043056488037	0.004491917133331299	0		0.54431787109375	-2.454414794921875	0		-1.0767041015625	0.21179782104492187	0		-0.565673828125	-2.827750244140625	0		2.453119140625	-1.3434476318359374	0		3.719218505859375	-0.48572860717773436	0		5.43611376953125	0.06522777557373047	0		5.9607333984375	0.5544711303710937	0		-0.3649771728515625	5.88161962890625	0		
